Music_Surfing::
	channel_count 4
	channel 1, Music_Surfing_Ch1
	channel 2, Music_Surfing_Ch2
	channel 3, Music_Surfing_Ch3
	channel 4, Music_Surfing_Ch4

Music_Surfing_Ch1::
	tempo 160
	volume 7, 7
	duty_cycle 3
	vibrato 12, 3, 4
	toggle_perfect_pitch
	note_type 12, 11, 5


Music_Surfing_branch_7fa30::
	note_type 12, 11, 2
	rest 16
	sound_loop 0, Music_Surfing_branch_7fa30


Music_Surfing_Ch2::
	duty_cycle 3
	vibrato 16, 2, 5
	note_type 12, 12, 6
	;
	rest 4
	;
	rest 16
	;
	rest 16
	;
	rest 16
	;
	rest 16
	;
	rest 16
	;
	rest 16
	;
	rest 16
	;
	rest 16

Music_Surfing_branch_7faae::
	note_type 12, 12, 6
	;
	octave 4
	note D#, 3
	note D#, 3
	note D#, 4
	octave 3
	note A#, 2
	note A_, 2
	note A#, 2
	;
	octave 4
	note D#, 3
	note D#, 3
	note D#, 4
	octave 3
	note A#, 2
	note A_, 2
	note A#, 2
	;
	octave 4
	note D#, 3
	note D#, 3
	note D#, 4
	note F_, 2
	note G_, 2
	note C_, 16
	;
	rest 2
	;
	octave 4
	note D#, 3
	note D#, 3
	note D#, 4
	octave 3
	note A#, 2
	note A_, 2
	note A#, 2
	;
	octave 4
	note D#, 3
	note D#, 3
	note D#, 4
	octave 3
	note A#, 2
	note A_, 2
	note A#, 2
	;
	octave 4
	note D#, 3
	note D#, 3
	note D#, 4
	note F_, 2
	note G_, 2
	note C_, 10
	;
	note D#, 2
	note F_, 2
	note G_, 2
	note G#, 2
	;
	note A#, 16
	;
	rest 6
	note A#, 4
	note G#, 2
	note G_, 2
	note G#, 2
	;
	note G_, 2
	octave 3
	note A#, 8
	note A#, 2
	octave 4
	note F_, 2
	note D#, 12
	;
	note D#, 2
	note D_, 2
	note D#, 2
	;
	note C_, 3
	note D_, 3
	note D#, 8
	rest 2
	;
	note D#, 3
	note F_, 3
	note G_, 8
	rest 2
	;
	note G_, 3
	note F#, 3
	note F_, 2
	note G_, 2
	note G_, 2
	note F#, 2
	pitch_slide 1, 3, F_
	note F_, 2
	;
	rest 16
	;
	rest 2
	note G_, 2
	note F_, 1
	note G_, 2
	note G_, 7
	note G_, 2
	;
	note G_, 4
	note F_, 2
	note A#, 4
	note G#, 2
	note G_, 2
	note F_, 2
	;
	note F_, 4
	note G_, 2
	octave 3
	note A#, 10
	;
	octave 4
	note F_, 4
	note G_, 2
	note C_, 10
	;
	note G_, 2
	note D#, 2
	note F_, 2
	note C_, 2
	note D#, 6
	note G_, 4
	;
	note D#, 2
	note F_, 4
	note D#, 2
	note D#, 6
	;
	note D_, 4
	note D#, 2
	note D_, 4
	note D#, 2
	note F_, 2
	note D#, 2
	;
	note G_, 16
	;
	rest 2
	note G_, 2
	note F_, 1
	note G_, 2
	note G_, 7
	note G_, 1
	note G_, 1
	;
	note G_, 4
	note F_, 2
	note A#, 4
	note G#, 2
	note G_, 2
	note F_, 2
	;
	note F_, 4
	note G_, 2
	octave 3
	note A#, 10
	;
	octave 4
	note F_, 4
	note G_, 2
	note C_, 10
	;
	note G_, 2
	note D#, 2
	note F_, 2
	note C_, 2
	note D#, 6
	note G_, 4
	;
	note D#, 2
	note F_, 2
	note C_, 2
	note D#, 2
	note D#, 6
	;
	note D_, 4
	note D#, 2
	note D_, 4
	note D#, 2
	note F_, 2
	note D#, 2
	;
	pitch_slide 8, 5, A#
	note A#, 16
	;
	note C_, 3
	note D_, 3
	note D#, 2
	note D#, 3
	note F_, 3
	note G_, 2
	;	
	note G#, 11
	note G_, 4
	rest 1
	sound_loop 0, Music_Surfing_branch_7faae


Music_Surfing_Ch3::
	note_type 12, 1, 0
	;
	rest 4
	;
	octave 3
	note F#, 2
	rest 1
	note G#, 2
	rest 1
	note A#, 4
	rest 2
	note A#, 4
	;
	note F_, 2
	rest 1
	note C_, 2
	rest 1
	note F_, 4
	rest 2
	note F_, 4
	;
	note A#, 2
	rest 1
	note F_, 2
	rest 1
	note A#, 4
	rest 2
	note A#, 2
	rest 2
	;
	note A#, 2
	rest 1
	note F_, 2
	rest 1
	note A#, 4
	rest 2
	note A#, 2
	note G#, 2
	;
	note F#, 2
	rest 1
	note G#, 2
	rest 1
	note A#, 4
	rest 2
	note A#, 4
	;
	note F_, 2
	rest 1
	note C_, 2
	rest 1
	note F_, 4
	rest 2
	note F_, 2
	note G#, 2
	;
	note A#, 4
	rest 2
	note A#, 6
	rest 4
	;
	note G#, 4
	rest 2
	pitch_slide 2, 4, C#
	note B_, 4
	rest 2
	octave 4
	note C#, 4

Music_Surfing_branch_7fb03::
	;
	octave 3
	note F#, 2
	rest 1
	note G#, 2
	rest 1
	note A#, 4
	rest 2
	note A#, 4
	;
	note F_, 2
	rest 1
	note F#, 2
	rest 1
	note G#, 4
	rest 2
	note G#, 4
	;
	note D#, 2
	rest 1
	note F_, 2
	rest 1
	note F#, 4
	rest 2
	note F#, 4
	;
	note D#, 2
	rest 1
	note F_, 2
	rest 1
	note F#, 4
	rest 2
	note F#, 4
	;
	octave 3
	note F#, 2
	rest 1
	note G#, 2
	rest 1
	note A#, 4
	rest 2
	note A#, 4
	;
	note F_, 2
	rest 1
	note F#, 2
	rest 1
	note G#, 4
	rest 2
	note G#, 4
	;
	note D#, 2
	rest 1
	note F_, 2
	rest 1
	note F#, 4
	rest 2
	note F#, 4
	;
	note D#, 2
	rest 1
	note F_, 2
	rest 1
	note F#, 4
	rest 2
	note F#, 4
	;
	note F#, 2
	rest 1
	note A_, 2
	rest 1
	note A#, 4
	rest 2
	note A#, 2
	note A_, 2
	;
	note G#, 2
	rest 1
	note A#, 2
	rest 1
	octave 4
	note C_, 4
	rest 2
	note C_, 4
	;
	octave 3
	note F_, 2
	rest 1
	note F#, 2
	rest 1
	note G#, 4
	rest 2
	note G#, 4
	;
	note G_, 2
	rest 1
	note G#, 2
	rest 1
	note A#, 4
	rest 2
	note A#, 2
	rest 2
	;
	note D#, 3
	note F_, 3
	note F#, 10
	;
	octave 4
	note C#, 3
	octave 3
	note B_, 3
	note A#, 10
	;
	note F#, 2
	rest 10
	pitch_slide 1, 2, F_
	note F#, 4
	;
	rest 16
	;
	rest 16
	;
	rest 16
	;
	rest 16
	;
	rest 16
	;
	rest 16
	;
	rest 16
	;
	rest 16
	;
	rest 16
	;
	rest 16
	;
	rest 16
	;
	rest 16
	;
	rest 16
	;
	rest 16
	;
	rest 16
	;
	rest 16
	;
	rest 16
	;
	rest 16
	;
	rest 16
	sound_loop 0, Music_Surfing_branch_7fb03

Music_Surfing_Ch4::
	toggle_noise 0
	drum_speed 12
	drum_note 2, 2
	drum_note 2, 1
	drum_note 2, 1

Music_Surfing__branch_bubu::
	;
	drum_note 2, 2
	rest 2
	drum_note 2, 2
	rest 2
	drum_note 6, 2
	rest 2
	drum_note 2, 2
	rest 2
	;
	sound_call Music_Surfing_ll
	;
	sound_call Music_Surfing_ll
	;
	sound_call Music_Surfing_ll
	;
	sound_call Music_Surfing_ll
	;
	sound_call Music_Surfing_ll
	;
	sound_call Music_Surfing_ll
	;
	sound_call Music_Surfing_ll
	;
	sound_loop 0, Music_Surfing__branch_bubu

Music_Surfing_ll::
	drum_note 6, 2
	rest 2
	drum_note 2, 2
	rest 2
	drum_note 6, 2
	rest 2
	drum_note 2, 2
	rest 2
	sound_ret
