; Mawatari Matsuko - Hohoemi no Bakudan
Music_YuYuHakusho::
	channel_count 4
	channel 1, Music_YuYuHakusho_Ch1
	channel 2, Music_YuYuHakusho_Ch2
	channel 3, Music_YuYuHakusho_Ch3
	channel 4, Music_YuYuHakusho_Ch4

Music_YuYuHakusho_Ch1::
	tempo 160
	volume 7, 7
	duty_cycle 3
	vibrato 12, 3, 4
	note_type 12, 12, 6
	rest 4
	rest 16
	rest 16
	rest 16
	rest 16
	rest 16
	rest 16
	rest 16
	rest 16

Music_YuYuHakusho_Dois::
	note_type 12, 10, 6
	rest 16
	rest 16
	rest 16
	octave 3
	note D#, 2
	rest 1
	note G#, 2
	rest 1
	note_type 12, 9, 5
	note A#, 10
	note_type 12, 10, 6
	rest 16
	rest 16
	rest 16
	note D#, 2
	rest 1
	note G#, 2
	rest 1
	note_type 12, 9, 5
	note A#, 10
	note_type 12, 10, 6
	octave 4
	duty_cycle 2
	rest 7
	note F_, 1
	note G_, 1
	note F_, 1
	note D#, 1
	rest 5
	rest 2
	note F_, 1
	rest 1
	note F_, 1
	note F_, 1
	note G_, 4
	note F_, 2
	rest 4
	rest 2
	note D_, 1
	rest 1
	note D_, 1
	rest 1
	note D_, 1
	note D#, 1
	note D_, 1
	note D#, 1
	note D_, 1
	rest 4
	note D#, 1
	rest 2
	note D#, 1
	rest 1
	note D#, 1
	rest 1
	note D#, 1
	note F_, 1
	note G_, 1
	note F_, 1
	note D#, 1
	rest 5
	duty_cycle 3
	octave 3
	note C_, 3
	note D_, 3
	note D#, 8
	rest 2
	note D#, 3
	note F_, 3
	note G_, 8
	rest 2
	octave 3
	pitch_slide 1, 3, D#
	note G_, 4
	octave 3
	rest 4
	note D#, 1
	rest 1
	note D#, 1
	rest 1
	note D#, 1
	rest 1
	pitch_slide 1, 5, F_
	note F_, 2
	rest 16
	rest 16
	rest 16
	rest 16
	rest 16
	rest 16
	rest 16
	rest 16
	rest 16
	rest 16
	rest 16
	rest 16
	rest 16
	rest 16
	rest 16
	rest 16
	rest 16
	rest 16	
	rest 16
	sound_loop 0, Music_YuYuHakusho_Dois


Music_YuYuHakusho_Ch2::
	duty_cycle 2
	vibrato 16, 2, 5
	note_type 12, 12, 6
	rest 4
	rest 12
	octave 3
	note A_, 2
	octave 4
	note C#, 2
	note D#, 6
	note D#, 6
	note D#, 1
	note F_, 3
	rest 12
	octave 3
	note A_, 2
	octave 4
	note C#, 2
	note D#, 3
	note D#, 1
	note D#, 2
	note F_, 4
	rest 6
	note A#, 3
	note A#, 3
	octave 5
	note C#, 16
	rest 6
	octave 4
	note F#, 2
	note G#, 2
	note A#, 14
	note C_, 1
	note D#, 1
	note F_, 1
	note G_, 2
	note A#, 2
	octave 5
	note C_, 1
	octave 4
	note A#, 1
	octave 5
	note C_, 1
	note D#, 4
	note D#, 4

Music_YuYuHakusho_Principal::
	duty_cycle 3
	note_type 12, 12, 6
	octave 4
	note D#, 3
	note D#, 3
	note D#, 4
	octave 3
	note A#, 2
	note A_, 2
	note A#, 2
	octave 4
	note D#, 3
	note D#, 3
	note D#, 4
	octave 3
	note A#, 2
	note A_, 2
	note A#, 2
	octave 4
	note D#, 3
	note D#, 3
	note D#, 4
	note F_, 2
	note G_, 2
	note C_, 16
	rest 2
	octave 4
	note D#, 3
	note D#, 3
	note D#, 4
	octave 3
	note A#, 2
	note A_, 2
	note A#, 2
	octave 4
	note D#, 3
	note D#, 3
	note D#, 4
	octave 3
	note A#, 2
	note A_, 2
	note A#, 2
	octave 4
	note D#, 3
	note D#, 3
	note D#, 4
	note F_, 2
	note G_, 2
	note C_, 10
	note D#, 2
	note F_, 2
	note G_, 2
	note G#, 2
	note A#, 16
	rest 6
	note A#, 4
	note G#, 2
	note G_, 2
	note G#, 2
	note G_, 2
	octave 3
	note A#, 8
	note A#, 2
	octave 4
	note F_, 2
	note D#, 12
	note D#, 2
	note D_, 2
	note D#, 2
	note C_, 3
	note D_, 3
	note D#, 8
	rest 2
	note D#, 3
	note F_, 3
	note G_, 8
	rest 2
	note G_, 3
	note F#, 3
	note F_, 2
	note G_, 2
	note G_, 2
	note F#, 2
	note F_, 2
	rest 16
	rest 2
	note G_, 2
	note F_, 1
	note G_, 2
	note G_, 7
	note G_, 2
	note G_, 4
	note F_, 2
	note A#, 4
	note G#, 2
	note G_, 2
	note F_, 2
	note F_, 4
	note G_, 2
	octave 3
	note A#, 10
	octave 4
	note F_, 4
	note G_, 2
	note C_, 10
	note G_, 2
	note D#, 2
	note F_, 2
	note C_, 2
	note D#, 6
	note G_, 4
	note D#, 2
	note F_, 4
	note D#, 2
	note D#, 6
	note D_, 4
	note D#, 2
	note D_, 4
	note D#, 2
	note F_, 2
	note D#, 2
	note G_, 16
	rest 2
	note G_, 2
	note F_, 1
	note G_, 2
	note G_, 7
	note G_, 1
	note G_, 1
	note G_, 4
	note F_, 2
	note A#, 4
	note G#, 2
	note G_, 2
	note F_, 2
	note F_, 4
	note G_, 2
	octave 3
	note A#, 10
	octave 4
	note F_, 4
	note G_, 2
	note C_, 10
	note G_, 2
	note D#, 2
	note F_, 2
	note C_, 2
	note D#, 6
	note G_, 4
	note D#, 2
	note F_, 2
	note C_, 2
	note D#, 2
	note D#, 6
	note D_, 4
	note D#, 2
	note D_, 4
	note D#, 2
	note F_, 2
	note D#, 2
	note A#, 16
	note C_, 3
	note D_, 3
	note D#, 2
	note D#, 3
	note F_, 3
	note G_, 2
	note G#, 11
	note G_, 4
	rest 1
	sound_loop 0, Music_YuYuHakusho_Principal


Music_YuYuHakusho_Ch3::
	note_type 12, 1, 0
	rest 4
	octave 3
	note F#, 2
	rest 1
	note G#, 2
	rest 1
	note A#, 4
	rest 2
	note A#, 4
	note F_, 2
	rest 1
	note C_, 2
	rest 1
	note F_, 4
	rest 2
	note F_, 4
	note A#, 2
	rest 1
	note F_, 2
	rest 1
	note A#, 4
	rest 2
	note A#, 2
	rest 2
	note A#, 2
	rest 1
	note F_, 2
	rest 1
	note A#, 4
	rest 2
	note A#, 2
	note G#, 2
	note F#, 2
	rest 1
	note G#, 2
	rest 1
	note A#, 4
	rest 2
	note A#, 4
	note F_, 2
	rest 1
	note C_, 2
	rest 1
	note F_, 4
	rest 2
	note F_, 2
	note G#, 2
	note A#, 4
	rest 2
	note A#, 6
	rest 4
	note G#, 4
	rest 2
	pitch_slide 2, 4, C#
	note B_, 4
	rest 2
	octave 4
	note C#, 4

Music_YuYuHakusho_Baixo::
	octave 3
	note F#, 2
	rest 1
	note G#, 2
	rest 1
	note A#, 4
	rest 2
	note A#, 4
	note F_, 2
	rest 1
	note F#, 2
	rest 1
	note G#, 4
	rest 2
	note G#, 4
	note D#, 2
	rest 1
	note F_, 2
	rest 1
	note F#, 4
	rest 2
	note F#, 4
	note D#, 2
	rest 1
	note F_, 2
	rest 1
	note F#, 4
	rest 2
	note F#, 4
	octave 3
	note F#, 2
	rest 1
	note G#, 2
	rest 1
	note A#, 4
	rest 2
	note A#, 4
	note F_, 2
	rest 1
	note F#, 2
	rest 1
	note G#, 4
	rest 2
	note G#, 4
	note D#, 2
	rest 1
	note F_, 2
	rest 1
	note F#, 4
	rest 2
	note F#, 4
	note D#, 2
	rest 1
	note F_, 2
	rest 1
	note F#, 4
	rest 2
	note F#, 4
	note F#, 2
	rest 1
	note A_, 2
	rest 1
	note A#, 4
	rest 2
	note A#, 2
	note A_, 2
	note G#, 2
	rest 1
	note A#, 2
	rest 1
	octave 4
	note C_, 4
	rest 2
	note C_, 4
	octave 3
	note F_, 2
	rest 1
	note F#, 2
	rest 1
	note G#, 4
	rest 2
	note G#, 4
	note G_, 2
	rest 1
	note G#, 2
	rest 1
	note A#, 4
	rest 2
	note A#, 2
	rest 2
	note D#, 3
	note F_, 3
	note F#, 10
	octave 4
	note C#, 3
	octave 3
	note B_, 3
	note A#, 10
	note G_, 2
	rest 10
	pitch_slide 1, 2, F_
	note F#, 4
	rest 16
	rest 16
	rest 16
	rest 16
	rest 16
	rest 16
	rest 16
	rest 16
	rest 16
	rest 16
	rest 16
	rest 16
	rest 16
	rest 16
	rest 16
	rest 16
	rest 16
	rest 16
	rest 16
	sound_loop 0, Music_YuYuHakusho_Baixo


Music_YuYuHakusho_Ch4::
	toggle_noise 0
	drum_speed 12
	drum_note 2, 2
	drum_note 2, 1
	drum_note 2, 1

Music_YuYuHakusho_Percussao::
	drum_note 2, 2
	rest 2
	drum_note 2, 2
	rest 2
	drum_note 6, 2
	rest 2
	drum_note 2, 2
	rest 2
	sound_call Music_YuYuHakusho_ll
	sound_call Music_YuYuHakusho_ll
	sound_call Music_YuYuHakusho_ll
	sound_call Music_YuYuHakusho_ll
	sound_call Music_YuYuHakusho_ll
	sound_call Music_YuYuHakusho_ll
	sound_call Music_YuYuHakusho_ll
	sound_loop 0, Music_YuYuHakusho_Percussao

Music_YuYuHakusho_ll::
	drum_note 6, 2
	rest 2
	drum_note 2, 2
	rest 2
	drum_note 6, 2
	rest 2
	drum_note 2, 2
	rest 2
	sound_ret
